<?xml version="1.0" encoding="UTF-8" standalone="no"?>
<!-- Uploaded to: SVG Repo, www.svgrepo.com, Transformed by: SVG Repo Mixer Tools -->

<svg
   fill="#abbecd"
   width="800px"
   height="800px"
   viewBox="0 0 32 32"
   id="icon"
   stroke="#abbecd"
   version="1.1"
   sodipodi:docname="user-avatar.svg"
   inkscape:version="1.3.2 (091e20ef0f, 2023-11-25)"
   xmlns:inkscape="http://www.inkscape.org/namespaces/inkscape"
   xmlns:sodipodi="http://sodipodi.sourceforge.net/DTD/sodipodi-0.dtd"
   xmlns="http://www.w3.org/2000/svg"
   xmlns:svg="http://www.w3.org/2000/svg">
  <defs
     id="defs2" />
  <sodipodi:namedview
     id="namedview1"
     pagecolor="#505050"
     bordercolor="#eeeeee"
     borderopacity="1"
     inkscape:showpageshadow="0"
     inkscape:pageopacity="0"
     inkscape:pagecheckerboard="0"
     inkscape:deskcolor="#505050"
     inkscape:zoom="1.07375"
     inkscape:cx="399.53434"
     inkscape:cy="400"
     inkscape:window-width="1920"
     inkscape:window-height="1123"
     inkscape:window-x="0"
     inkscape:window-y="0"
     inkscape:window-maximized="1"
     inkscape:current-layer="icon" />
  <g
     id="SVGRepo_bgCarrier"
     stroke-width="0" />
  <g
     id="SVGRepo_tracerCarrier"
     stroke-linecap="round"
     stroke-linejoin="round" />
  <g
     id="SVGRepo_iconCarrier">
    <defs
       id="defs1">
      <style
         id="style1"> .cls-1 { fill: none; } </style>
    </defs>
    <path
       id="_inner-path_"
       data-name="&lt;inner-path&gt;"
       class="cls-1"
       d="M8.0071,24.93A4.9958,4.9958,0,0,1,13,20h6a4.9959,4.9959,0,0,1,4.9929,4.93,11.94,11.94,0,0,1-15.9858,0ZM20.5,12.5A4.5,4.5,0,1,1,16,8,4.5,4.5,0,0,1,20.5,12.5Z" />
    <path
       d="M26.7489,24.93A13.9893,13.9893,0,1,0,2,16a13.899,13.899,0,0,0,3.2511,8.93l-.02.0166c.07.0845.15.1567.2222.2392.09.1036.1864.2.28.3008.28.3033.5674.5952.87.87.0915.0831.1864.1612.28.2417.32.2759.6484.5372.99.7813.0441.0312.0832.0693.1276.1006v-.0127a13.9011,13.9011,0,0,0,16,0V27.48c.0444-.0313.0835-.0694.1276-.1006.3412-.2441.67-.5054.99-.7813.0936-.08.1885-.1586.28-.2417.3025-.2749.59-.5668.87-.87.0933-.1006.1894-.1972.28-.3008.0719-.0825.1522-.1547.2222-.2392ZM16,8a4.5,4.5,0,1,1-4.5,4.5A4.5,4.5,0,0,1,16,8ZM8.0071,24.93A4.9957,4.9957,0,0,1,13,20h6a4.9958,4.9958,0,0,1,4.9929,4.93,11.94,11.94,0,0,1-15.9858,0Z"
       id="path1" />
  </g>
</svg>
